<svg xmlns="http://www.w3.org/2000/svg" viewBox="0 0 600 600" width="600" height="600">
<defs>
<radialGradient id="bg" cx="50%" cy="36%" r="78%"><stop offset="0" stop-color="#eef1ea"/><stop offset="1" stop-color="#b9c2ae"/></radialGradient>
<linearGradient id="table" x1="0" y1="0" x2="0" y2="1"><stop offset="0" stop-color="#000" stop-opacity="0"/><stop offset="1" stop-color="#000" stop-opacity=".12"/></linearGradient>
<filter id="flou" x="-50%" y="-50%" width="200%" height="200%"><feGaussianBlur stdDeviation="16"/></filter>
<filter id="flou2" x="-50%" y="-50%" width="200%" height="200%"><feGaussianBlur stdDeviation="5"/></filter>
<linearGradient id="volH" x1="0" y1="0" x2="0" y2="1"><stop offset="0" stop-color="#fff" stop-opacity=".22"/><stop offset=".35" stop-color="#fff" stop-opacity="0"/><stop offset="1" stop-color="#000" stop-opacity=".32"/></linearGradient>
<linearGradient id="cyl" x1="0" y1="0" x2="1" y2="0"><stop offset="0" stop-color="#000" stop-opacity=".38"/><stop offset=".32" stop-color="#fff" stop-opacity=".22"/><stop offset=".5" stop-color="#fff" stop-opacity="0"/><stop offset="1" stop-color="#000" stop-opacity=".42"/></linearGradient>
<linearGradient id="cylV" x1="0" y1="0" x2="0" y2="1"><stop offset="0" stop-color="#000" stop-opacity=".30"/><stop offset=".3" stop-color="#fff" stop-opacity=".20"/><stop offset=".55" stop-color="#fff" stop-opacity="0"/><stop offset="1" stop-color="#000" stop-opacity=".45"/></linearGradient>
<linearGradient id="metal" x1="0" y1="0" x2="0" y2="1"><stop offset="0" stop-color="#f4f4f2"/><stop offset=".45" stop-color="#b9bcc0"/><stop offset=".55" stop-color="#8d9196"/><stop offset="1" stop-color="#d9dadc"/></linearGradient>
</defs>
<rect width="600" height="600" fill="url(#bg)"/>
<rect y="380" width="600" height="220" fill="url(#table)"/>
<ellipse cx="290" cy="450" rx="170" ry="30" fill="#1a1208" opacity="0.28" filter="url(#flou)"/><ellipse cx="290" cy="410" rx="160" ry="60" fill="#d8d4c9"/><rect x="130" y="370" width="320" height="40" fill="#e9e5da"/><rect x="130" y="370" width="320" height="40" fill="url(#cyl)" opacity=".6"/><ellipse cx="290" cy="370" rx="160" ry="60" fill="#f7f5ef"/><ellipse cx="290" cy="370" rx="152" ry="57" fill="none" stroke="#000" stroke-opacity=".08"/><ellipse cx="290" cy="370" rx="144" ry="54" fill="none" stroke="#000" stroke-opacity=".08"/><ellipse cx="290" cy="370" rx="136" ry="51" fill="none" stroke="#000" stroke-opacity=".08"/><ellipse cx="290" cy="370" rx="128" ry="48" fill="none" stroke="#000" stroke-opacity=".08"/><ellipse cx="290" cy="370" rx="120" ry="45" fill="none" stroke="#000" stroke-opacity=".08"/><ellipse cx="290" cy="370" rx="112" ry="42" fill="none" stroke="#000" stroke-opacity=".08"/><ellipse cx="290" cy="370" rx="104" ry="39" fill="none" stroke="#000" stroke-opacity=".08"/><ellipse cx="290" cy="370" rx="96" ry="36" fill="none" stroke="#000" stroke-opacity=".08"/><ellipse cx="290" cy="370" rx="88" ry="33" fill="none" stroke="#000" stroke-opacity=".08"/><ellipse cx="290" cy="370" rx="80" ry="30" fill="none" stroke="#000" stroke-opacity=".08"/><ellipse cx="290" cy="370" rx="72" ry="27" fill="none" stroke="#000" stroke-opacity=".08"/><ellipse cx="290" cy="370" rx="64" ry="24" fill="none" stroke="#000" stroke-opacity=".08"/><ellipse cx="290" cy="370" rx="56" ry="21" fill="none" stroke="#000" stroke-opacity=".08"/><ellipse cx="290" cy="370" rx="44" ry="17" fill="#c4b59a"/><ellipse cx="290" cy="372" rx="30" ry="11" fill="#5b4a33"/><path d="M448 380 C520 380 540 300 470 260 C420 232 380 250 360 210" stroke="#f7f5ef" stroke-width="34" fill="none"/><path d="M448 380 C520 380 540 300 470 260 C420 232 380 250 360 210" stroke="#000" stroke-opacity=".10" stroke-width="34" stroke-dasharray="2 5" fill="none"/>
</svg>